<?xml version="1.0" encoding="utf-8"?><svg width="auto" height="3270" style="overflow:visible " version="1.1" xmlns="http://www.w3.org/2000/svg"><rect x="20" y="20" width="200" height="40" style="fill:white;stroke:black;stroke-width:1" /><text x="30" y="30" font-size="10" style="fill:blue">xsl:stylesheet</text><text x="30" y="40" font-size="8" style="fill:black">version: 1.0</text><text x="30" y="50" font-size="8" style="fill:black">xmlns:xsl: http://www.w3.org/1999/XSL/Transform</text><rect x="240" y="20" width="200" height="40" style="fill:white;stroke:black;stroke-width:1" /><text x="250" y="30" font-size="10" style="fill:blue">xsl:output</text><path d="M220 40 C240 40 220 40 240 40" style="fill:transparent;stroke:black" /><text x="250" y="40" font-size="8" style="fill:black">method: html</text><rect x="240" y="70" width="200" height="40" style="fill:white;stroke:black;stroke-width:1" /><text x="250" y="80" font-size="10" style="fill:blue">xsl:template</text><path d="M220 40 C240 40 220 90 240 90" style="fill:transparent;stroke:black" /><text x="250" y="90" font-size="8" style="fill:black">match: rutas</text><rect x="460" y="70" width="200" height="40" style="fill:white;stroke:black;stroke-width:1" /><text x="470" y="80" font-size="10" style="fill:blue">html</text><path d="M440 90 C460 90 440 90 460 90" style="fill:transparent;stroke:black" /><rect x="680" y="70" width="200" height="40" style="fill:white;stroke:black;stroke-width:1" /><text x="690" y="80" font-size="10" style="fill:blue">head</text><path d="M660 90 C680 90 660 90 680 90" style="fill:transparent;stroke:black" /><rect x="900" y="70" width="200" height="40" style="fill:white;stroke:black;stroke-width:1" /><text x="910" y="80" font-size="10" style="fill:blue">title</text><path d="M880 90 C900 90 880 90 900 90" style="fill:transparent;stroke:black" /><rect x="966" y="70" width="137" height="40" style="fill:green;stroke:black;stroke-width:1" /><text x="976" y="80" font-size="8" style="fill:white">Ejercicio 2 - Tarea 1</text><rect x="900" y="120" width="200" height="40" style="fill:white;stroke:black;stroke-width:1" /><text x="910" y="130" font-size="10" style="fill:blue">link</text><path d="M880 90 C900 90 880 140 900 140" style="fill:transparent;stroke:black" /><text x="910" y="140" font-size="8" style="fill:black">rel: stylesheet</text><text x="910" y="150" font-size="8" style="fill:black">type: text/css</text><text x="910" y="160" font-size="8" style="fill:black">href: rutas.css</text><rect x="680" y="220" width="200" height="40" style="fill:white;stroke:black;stroke-width:1" /><text x="690" y="230" font-size="10" style="fill:blue">body</text><path d="M660 90 C680 90 660 240 680 240" style="fill:transparent;stroke:black" /><rect x="900" y="220" width="200" height="40" style="fill:white;stroke:black;stroke-width:1" /><text x="910" y="230" font-size="10" style="fill:blue">header</text><path d="M880 240 C900 240 880 240 900 240" style="fill:transparent;stroke:black" /><rect x="1120" y="220" width="200" height="40" style="fill:white;stroke:black;stroke-width:1" /><text x="1130" y="230" font-size="10" style="fill:blue">h1</text><path d="M1100 240 C1120 240 1100 240 1120 240" style="fill:transparent;stroke:black" /><rect x="1186" y="220" width="137" height="40" style="fill:green;stroke:black;stroke-width:1" /><text x="1196" y="230" font-size="8" style="fill:white">RUTAS TURÍSTICAS</text><rect x="900" y="320" width="200" height="40" style="fill:white;stroke:black;stroke-width:1" /><text x="910" y="330" font-size="10" style="fill:blue">section</text><path d="M880 240 C900 240 880 340 900 340" style="fill:transparent;stroke:black" /><rect x="1120" y="320" width="200" height="40" style="fill:white;stroke:black;stroke-width:1" /><text x="1130" y="330" font-size="10" style="fill:blue">xsl:for-each</text><path d="M1100 340 C1120 340 1100 340 1120 340" style="fill:transparent;stroke:black" /><text x="1130" y="340" font-size="8" style="fill:black">select: ruta</text><rect x="1340" y="320" width="200" height="40" style="fill:white;stroke:black;stroke-width:1" /><text x="1350" y="330" font-size="10" style="fill:blue">h2</text><path d="M1320 340 C1340 340 1320 340 1340 340" style="fill:transparent;stroke:black" /><rect x="1560" y="320" width="200" height="40" style="fill:white;stroke:black;stroke-width:1" /><text x="1570" y="330" font-size="10" style="fill:blue">xsl:value-of</text><path d="M1540 340 C1560 340 1540 340 1560 340" style="fill:transparent;stroke:black" /><text x="1570" y="340" font-size="8" style="fill:black">select: @nombre</text><rect x="1340" y="420" width="200" height="40" style="fill:white;stroke:black;stroke-width:1" /><text x="1350" y="430" font-size="10" style="fill:blue">p</text><path d="M1320 340 C1340 340 1320 440 1340 440" style="fill:transparent;stroke:black" /><rect x="1406" y="420" width="137" height="40" style="fill:green;stroke:black;stroke-width:1" /><text x="1416" y="430" font-size="8" style="fill:white">Tipo: </text><rect x="1560" y="420" width="200" height="40" style="fill:white;stroke:black;stroke-width:1" /><text x="1570" y="430" font-size="10" style="fill:blue">xsl:value-of</text><path d="M1540 440 C1560 440 1540 440 1560 440" style="fill:transparent;stroke:black" /><text x="1570" y="440" font-size="8" style="fill:black">select: tipo</text><rect x="1340" y="520" width="200" height="40" style="fill:white;stroke:black;stroke-width:1" /><text x="1350" y="530" font-size="10" style="fill:blue">p</text><path d="M1320 340 C1340 340 1320 540 1340 540" style="fill:transparent;stroke:black" /><rect x="1406" y="520" width="137" height="40" style="fill:green;stroke:black;stroke-width:1" /><text x="1416" y="530" font-size="8" style="fill:white">Transporte: </text><rect x="1560" y="520" width="200" height="40" style="fill:white;stroke:black;stroke-width:1" /><text x="1570" y="530" font-size="10" style="fill:blue">xsl:value-of</text><path d="M1540 540 C1560 540 1540 540 1560 540" style="fill:transparent;stroke:black" /><text x="1570" y="540" font-size="8" style="fill:black">select: transporte</text><rect x="1340" y="620" width="200" height="40" style="fill:white;stroke:black;stroke-width:1" /><text x="1350" y="630" font-size="10" style="fill:blue">p</text><path d="M1320 340 C1340 340 1320 640 1340 640" style="fill:transparent;stroke:black" /><rect x="1406" y="620" width="137" height="40" style="fill:green;stroke:black;stroke-width:1" /><text x="1416" y="630" font-size="8" style="fill:white">Fecha: </text><rect x="1560" y="620" width="200" height="40" style="fill:white;stroke:black;stroke-width:1" /><text x="1570" y="630" font-size="10" style="fill:blue">xsl:value-of</text><path d="M1540 640 C1560 640 1540 640 1560 640" style="fill:transparent;stroke:black" /><text x="1570" y="640" font-size="8" style="fill:black">select: fecha</text><rect x="1340" y="720" width="200" height="40" style="fill:white;stroke:black;stroke-width:1" /><text x="1350" y="730" font-size="10" style="fill:blue">p</text><path d="M1320 340 C1340 340 1320 740 1340 740" style="fill:transparent;stroke:black" /><rect x="1406" y="720" width="137" height="40" style="fill:green;stroke:black;stroke-width:1" /><text x="1416" y="730" font-size="8" style="fill:white">Duración: </text><rect x="1560" y="720" width="200" height="40" style="fill:white;stroke:black;stroke-width:1" /><text x="1570" y="730" font-size="10" style="fill:blue">xsl:value-of</text><path d="M1540 740 C1560 740 1540 740 1560 740" style="fill:transparent;stroke:black" /><text x="1570" y="740" font-size="8" style="fill:black">select: duracion</text><rect x="1340" y="820" width="200" height="40" style="fill:white;stroke:black;stroke-width:1" /><text x="1350" y="830" font-size="10" style="fill:blue">p</text><path d="M1320 340 C1340 340 1320 840 1340 840" style="fill:transparent;stroke:black" /><rect x="1406" y="820" width="137" height="40" style="fill:green;stroke:black;stroke-width:1" /><text x="1416" y="830" font-size="8" style="fill:white">Agencia: </text><rect x="1560" y="820" width="200" height="40" style="fill:white;stroke:black;stroke-width:1" /><text x="1570" y="830" font-size="10" style="fill:blue">xsl:value-of</text><path d="M1540 840 C1560 840 1540 840 1560 840" style="fill:transparent;stroke:black" /><text x="1570" y="840" font-size="8" style="fill:black">select: agencia</text><rect x="1340" y="920" width="200" height="40" style="fill:white;stroke:black;stroke-width:1" /><text x="1350" y="930" font-size="10" style="fill:blue">p</text><path d="M1320 340 C1340 340 1320 940 1340 940" style="fill:transparent;stroke:black" /><rect x="1560" y="920" width="200" height="40" style="fill:white;stroke:black;stroke-width:1" /><text x="1570" y="930" font-size="10" style="fill:blue">xsl:value-of</text><path d="M1540 940 C1560 940 1540 940 1560 940" style="fill:transparent;stroke:black" /><text x="1570" y="940" font-size="8" style="fill:black">select: descripcion</text><rect x="1340" y="1020" width="200" height="40" style="fill:white;stroke:black;stroke-width:1" /><text x="1350" y="1030" font-size="10" style="fill:blue">p</text><path d="M1320 340 C1340 340 1320 1040 1340 1040" style="fill:transparent;stroke:black" /><rect x="1406" y="1020" width="137" height="40" style="fill:green;stroke:black;stroke-width:1" /><text x="1416" y="1030" font-size="8" style="fill:white">Recomendada para: </text><rect x="1560" y="1020" width="200" height="40" style="fill:white;stroke:black;stroke-width:1" /><text x="1570" y="1030" font-size="10" style="fill:blue">xsl:value-of</text><path d="M1540 1040 C1560 1040 1540 1040 1560 1040" style="fill:transparent;stroke:black" /><text x="1570" y="1040" font-size="8" style="fill:black">select: personas</text><rect x="1340" y="1120" width="200" height="40" style="fill:white;stroke:black;stroke-width:1" /><text x="1350" y="1130" font-size="10" style="fill:blue">p</text><path d="M1320 340 C1340 340 1320 1140 1340 1140" style="fill:transparent;stroke:black" /><rect x="1406" y="1120" width="137" height="40" style="fill:green;stroke:black;stroke-width:1" /><text x="1416" y="1130" font-size="8" style="fill:white">
							Inicio de la ruta: </text><rect x="1560" y="1120" width="200" height="40" style="fill:white;stroke:black;stroke-width:1" /><text x="1570" y="1130" font-size="10" style="fill:blue">xsl:value-of</text><path d="M1540 1140 C1560 1140 1540 1140 1560 1140" style="fill:transparent;stroke:black" /><text x="1570" y="1140" font-size="8" style="fill:black">select: lugar</text><rect x="1406" y="1170" width="137" height="40" style="fill:green;stroke:black;stroke-width:1" /><text x="1416" y="1180" font-size="8" style="fill:white">, </text><rect x="1560" y="1170" width="200" height="40" style="fill:white;stroke:black;stroke-width:1" /><text x="1570" y="1180" font-size="10" style="fill:blue">xsl:value-of</text><path d="M1540 1140 C1560 1140 1540 1190 1560 1190" style="fill:transparent;stroke:black" /><text x="1570" y="1190" font-size="8" style="fill:black">select: direccion</text><rect x="1406" y="1220" width="137" height="40" style="fill:green;stroke:black;stroke-width:1" /><text x="1416" y="1230" font-size="8" style="fill:white">, 
							coordenadas: </text><rect x="1560" y="1220" width="200" height="40" style="fill:white;stroke:black;stroke-width:1" /><text x="1570" y="1230" font-size="10" style="fill:blue">xsl:value-of</text><path d="M1540 1140 C1560 1140 1540 1240 1560 1240" style="fill:transparent;stroke:black" /><text x="1570" y="1240" font-size="8" style="fill:black">select: coordenadas/longitud</text><rect x="1406" y="1270" width="137" height="40" style="fill:green;stroke:black;stroke-width:1" /><text x="1416" y="1280" font-size="8" style="fill:white">, 
							</text><rect x="1560" y="1270" width="200" height="40" style="fill:white;stroke:black;stroke-width:1" /><text x="1570" y="1280" font-size="10" style="fill:blue">xsl:value-of</text><path d="M1540 1140 C1560 1140 1540 1290 1560 1290" style="fill:transparent;stroke:black" /><text x="1570" y="1290" font-size="8" style="fill:black">select: coordenadas/latitud</text><rect x="1406" y="1320" width="137" height="40" style="fill:green;stroke:black;stroke-width:1" /><text x="1416" y="1330" font-size="8" style="fill:white">, altitud: </text><rect x="1560" y="1320" width="200" height="40" style="fill:white;stroke:black;stroke-width:1" /><text x="1570" y="1330" font-size="10" style="fill:blue">xsl:value-of</text><path d="M1540 1140 C1560 1140 1540 1340 1560 1340" style="fill:transparent;stroke:black" /><text x="1570" y="1340" font-size="8" style="fill:black">select: coordenadas/altitud</text><rect x="1340" y="1420" width="200" height="40" style="fill:white;stroke:black;stroke-width:1" /><text x="1350" y="1430" font-size="10" style="fill:blue">h3</text><path d="M1320 340 C1340 340 1320 1440 1340 1440" style="fill:transparent;stroke:black" /><rect x="1406" y="1420" width="137" height="40" style="fill:green;stroke:black;stroke-width:1" /><text x="1416" y="1430" font-size="8" style="fill:white">Referencias</text><rect x="1340" y="1470" width="200" height="40" style="fill:white;stroke:black;stroke-width:1" /><text x="1350" y="1480" font-size="10" style="fill:blue">ul</text><path d="M1320 340 C1340 340 1320 1490 1340 1490" style="fill:transparent;stroke:black" /><rect x="1560" y="1470" width="200" height="40" style="fill:white;stroke:black;stroke-width:1" /><text x="1570" y="1480" font-size="10" style="fill:blue">xsl:for-each</text><path d="M1540 1490 C1560 1490 1540 1490 1560 1490" style="fill:transparent;stroke:black" /><text x="1570" y="1490" font-size="8" style="fill:black">select: referencia</text><rect x="1780" y="1470" width="200" height="40" style="fill:white;stroke:black;stroke-width:1" /><text x="1790" y="1480" font-size="10" style="fill:blue">li</text><path d="M1760 1490 C1780 1490 1760 1490 1780 1490" style="fill:transparent;stroke:black" /><rect x="2000" y="1470" width="200" height="40" style="fill:white;stroke:black;stroke-width:1" /><text x="2010" y="1480" font-size="10" style="fill:blue">a</text><path d="M1980 1490 C2000 1490 1980 1490 2000 1490" style="fill:transparent;stroke:black" /><rect x="2220" y="1470" width="200" height="40" style="fill:white;stroke:black;stroke-width:1" /><text x="2230" y="1480" font-size="10" style="fill:blue">xsl:attribute</text><path d="M2200 1490 C2220 1490 2200 1490 2220 1490" style="fill:transparent;stroke:black" /><text x="2230" y="1490" font-size="8" style="fill:black">name: href</text><rect x="2440" y="1470" width="200" height="40" style="fill:white;stroke:black;stroke-width:1" /><text x="2450" y="1480" font-size="10" style="fill:blue">xsl:value-of</text><path d="M2420 1490 C2440 1490 2420 1490 2440 1490" style="fill:transparent;stroke:black" /><text x="2450" y="1490" font-size="8" style="fill:black">select: @enlace</text><rect x="2220" y="1570" width="200" height="40" style="fill:white;stroke:black;stroke-width:1" /><text x="2230" y="1580" font-size="10" style="fill:blue">xsl:value-of</text><path d="M2200 1490 C2220 1490 2200 1590 2220 1590" style="fill:transparent;stroke:black" /><text x="2230" y="1590" font-size="8" style="fill:black">select: .</text><rect x="1340" y="1820" width="200" height="40" style="fill:white;stroke:black;stroke-width:1" /><text x="1350" y="1830" font-size="10" style="fill:blue">p</text><path d="M1320 340 C1340 340 1320 1840 1340 1840" style="fill:transparent;stroke:black" /><rect x="1406" y="1820" width="137" height="40" style="fill:green;stroke:black;stroke-width:1" /><text x="1416" y="1830" font-size="8" style="fill:white">Puntuación:</text><rect x="1560" y="1820" width="200" height="40" style="fill:white;stroke:black;stroke-width:1" /><text x="1570" y="1830" font-size="10" style="fill:blue">xsl:value-of</text><path d="M1540 1840 C1560 1840 1540 1840 1560 1840" style="fill:transparent;stroke:black" /><text x="1570" y="1840" font-size="8" style="fill:black">select: recomendacion</text><rect x="1340" y="1920" width="200" height="40" style="fill:white;stroke:black;stroke-width:1" /><text x="1350" y="1930" font-size="10" style="fill:blue">h3</text><path d="M1320 340 C1340 340 1320 1940 1340 1940" style="fill:transparent;stroke:black" /><rect x="1406" y="1920" width="137" height="40" style="fill:green;stroke:black;stroke-width:1" /><text x="1416" y="1930" font-size="8" style="fill:white">Hitos de la ruta</text><rect x="1340" y="1970" width="200" height="40" style="fill:white;stroke:black;stroke-width:1" /><text x="1350" y="1980" font-size="10" style="fill:blue">ul</text><path d="M1320 340 C1340 340 1320 1990 1340 1990" style="fill:transparent;stroke:black" /><rect x="1560" y="1970" width="200" height="40" style="fill:white;stroke:black;stroke-width:1" /><text x="1570" y="1980" font-size="10" style="fill:blue">xsl:for-each</text><path d="M1540 1990 C1560 1990 1540 1990 1560 1990" style="fill:transparent;stroke:black" /><text x="1570" y="1990" font-size="8" style="fill:black">select: hitos/hito</text><rect x="1780" y="1970" width="200" height="40" style="fill:white;stroke:black;stroke-width:1" /><text x="1790" y="1980" font-size="10" style="fill:blue">li</text><path d="M1760 1990 C1780 1990 1760 1990 1780 1990" style="fill:transparent;stroke:black" /><rect x="2000" y="1970" width="200" height="40" style="fill:white;stroke:black;stroke-width:1" /><text x="2010" y="1980" font-size="10" style="fill:blue">h4</text><path d="M1980 1990 C2000 1990 1980 1990 2000 1990" style="fill:transparent;stroke:black" /><rect x="2220" y="1970" width="200" height="40" style="fill:white;stroke:black;stroke-width:1" /><text x="2230" y="1980" font-size="10" style="fill:blue">xsl:value-of</text><path d="M2200 1990 C2220 1990 2200 1990 2220 1990" style="fill:transparent;stroke:black" /><text x="2230" y="1990" font-size="8" style="fill:black">select: @nombre</text><rect x="2000" y="2070" width="200" height="40" style="fill:white;stroke:black;stroke-width:1" /><text x="2010" y="2080" font-size="10" style="fill:blue">p</text><path d="M1980 1990 C2000 1990 1980 2090 2000 2090" style="fill:transparent;stroke:black" /><rect x="2220" y="2070" width="200" height="40" style="fill:white;stroke:black;stroke-width:1" /><text x="2230" y="2080" font-size="10" style="fill:blue">xsl:value-of</text><path d="M2200 2090 C2220 2090 2200 2090 2220 2090" style="fill:transparent;stroke:black" /><text x="2230" y="2090" font-size="8" style="fill:black">select: descripcion-hito</text><rect x="2000" y="2170" width="200" height="40" style="fill:white;stroke:black;stroke-width:1" /><text x="2010" y="2180" font-size="10" style="fill:blue">p</text><path d="M1980 1990 C2000 1990 1980 2190 2000 2190" style="fill:transparent;stroke:black" /><rect x="2066" y="2170" width="137" height="40" style="fill:green;stroke:black;stroke-width:1" /><text x="2076" y="2180" font-size="8" style="fill:white">
										Coordenadas: </text><rect x="2220" y="2170" width="200" height="40" style="fill:white;stroke:black;stroke-width:1" /><text x="2230" y="2180" font-size="10" style="fill:blue">xsl:value-of</text><path d="M2200 2190 C2220 2190 2200 2190 2220 2190" style="fill:transparent;stroke:black" /><text x="2230" y="2190" font-size="8" style="fill:black">select: coordenadas-hito/longitud-hito</text><rect x="2066" y="2220" width="137" height="40" style="fill:green;stroke:black;stroke-width:1" /><text x="2076" y="2230" font-size="8" style="fill:white">, 
										</text><rect x="2220" y="2220" width="200" height="40" style="fill:white;stroke:black;stroke-width:1" /><text x="2230" y="2230" font-size="10" style="fill:blue">xsl:value-of</text><path d="M2200 2190 C2220 2190 2200 2240 2220 2240" style="fill:transparent;stroke:black" /><text x="2230" y="2240" font-size="8" style="fill:black">select: coordenadas-hito/latitud-hito</text><rect x="2066" y="2270" width="137" height="40" style="fill:green;stroke:black;stroke-width:1" /><text x="2076" y="2280" font-size="8" style="fill:white">, altitud: </text><rect x="2220" y="2270" width="200" height="40" style="fill:white;stroke:black;stroke-width:1" /><text x="2230" y="2280" font-size="10" style="fill:blue">xsl:value-of</text><path d="M2200 2190 C2220 2190 2200 2290 2220 2290" style="fill:transparent;stroke:black" /><text x="2230" y="2290" font-size="8" style="fill:black">select: coordenadas-hito/altitud-hito</text><rect x="2000" y="2370" width="200" height="40" style="fill:white;stroke:black;stroke-width:1" /><text x="2010" y="2380" font-size="10" style="fill:blue">p</text><path d="M1980 1990 C2000 1990 1980 2390 2000 2390" style="fill:transparent;stroke:black" /><rect x="2066" y="2370" width="137" height="40" style="fill:green;stroke:black;stroke-width:1" /><text x="2076" y="2380" font-size="8" style="fill:white">Distancia desde el hito anterior: </text><rect x="2220" y="2370" width="200" height="40" style="fill:white;stroke:black;stroke-width:1" /><text x="2230" y="2380" font-size="10" style="fill:blue">xsl:value-of</text><path d="M2200 2390 C2220 2390 2200 2390 2220 2390" style="fill:transparent;stroke:black" /><text x="2230" y="2390" font-size="8" style="fill:black">select: distancia</text><rect x="2220" y="2420" width="200" height="40" style="fill:white;stroke:black;stroke-width:1" /><text x="2230" y="2430" font-size="10" style="fill:blue">xsl:value-of</text><path d="M2200 2390 C2220 2390 2200 2440 2220 2440" style="fill:transparent;stroke:black" /><text x="2230" y="2440" font-size="8" style="fill:black">select: distancia/@unidades</text><rect x="2000" y="2520" width="200" height="40" style="fill:white;stroke:black;stroke-width:1" /><text x="2010" y="2530" font-size="10" style="fill:blue">xsl:for-each</text><path d="M1980 1990 C2000 1990 1980 2540 2000 2540" style="fill:transparent;stroke:black" /><text x="2010" y="2540" font-size="8" style="fill:black">select: galeria/fotografia</text><rect x="2220" y="2520" width="200" height="40" style="fill:white;stroke:black;stroke-width:1" /><text x="2230" y="2530" font-size="10" style="fill:blue">xsl:element</text><path d="M2200 2540 C2220 2540 2200 2540 2220 2540" style="fill:transparent;stroke:black" /><text x="2230" y="2540" font-size="8" style="fill:black">name: img</text><rect x="2440" y="2520" width="200" height="40" style="fill:white;stroke:black;stroke-width:1" /><text x="2450" y="2530" font-size="10" style="fill:blue">xsl:attribute</text><path d="M2420 2540 C2440 2540 2420 2540 2440 2540" style="fill:transparent;stroke:black" /><text x="2450" y="2540" font-size="8" style="fill:black">name: src</text><rect x="2660" y="2520" width="200" height="40" style="fill:white;stroke:black;stroke-width:1" /><text x="2670" y="2530" font-size="10" style="fill:blue">xsl:value-of</text><path d="M2640 2540 C2660 2540 2640 2540 2660 2540" style="fill:transparent;stroke:black" /><text x="2670" y="2540" font-size="8" style="fill:black">select: @archivo</text><rect x="2440" y="2620" width="200" height="40" style="fill:white;stroke:black;stroke-width:1" /><text x="2450" y="2630" font-size="10" style="fill:blue">xsl:attribute</text><path d="M2420 2540 C2440 2540 2420 2640 2440 2640" style="fill:transparent;stroke:black" /><text x="2450" y="2640" font-size="8" style="fill:black">name: alt</text><rect x="2660" y="2620" width="200" height="40" style="fill:white;stroke:black;stroke-width:1" /><text x="2670" y="2630" font-size="10" style="fill:blue">xsl:value-of</text><path d="M2640 2640 C2660 2640 2640 2640 2660 2640" style="fill:transparent;stroke:black" /><text x="2670" y="2640" font-size="8" style="fill:black">select: .</text></svg>