<?xml version="1.0" encoding="utf-8"?><svg width="auto" height="3520" style="overflow:visible " version="1.1" xmlns="http://www.w3.org/2000/svg"><rect x="20" y="20" width="200" height="40" style="fill:white;stroke:black;stroke-width:1" /><text x="30" y="30" font-size="10" style="fill:blue">xsl:stylesheet</text><text x="30" y="40" font-size="8" style="fill:black">version: 1.0</text><text x="30" y="50" font-size="8" style="fill:black">xmlns:xsl: http://www.w3.org/1999/XSL/Transform</text><rect x="240" y="20" width="200" height="40" style="fill:white;stroke:black;stroke-width:1" /><text x="250" y="30" font-size="10" style="fill:blue">xsl:output</text><path d="M220 40 C240 40 220 40 240 40" style="fill:transparent;stroke:black" /><text x="250" y="40" font-size="8" style="fill:black">method: html</text><text x="250" y="50" font-size="8" style="fill:black">version: 5.2</text><text x="250" y="60" font-size="8" style="fill:black">encoding: utf-8</text><text x="250" y="70" font-size="8" style="fill:black">indent: yes</text><rect x="240" y="70" width="200" height="40" style="fill:white;stroke:black;stroke-width:1" /><text x="250" y="80" font-size="10" style="fill:blue">xsl:template</text><path d="M220 40 C240 40 220 90 240 90" style="fill:transparent;stroke:black" /><text x="250" y="90" font-size="8" style="fill:black">match: rutas</text><rect x="460" y="70" width="200" height="40" style="fill:white;stroke:black;stroke-width:1" /><text x="470" y="80" font-size="10" style="fill:blue">xsl:text</text><path d="M440 90 C460 90 440 90 460 90" style="fill:transparent;stroke:black" /><text x="470" y="90" font-size="8" style="fill:black">disable-output-escaping: yes</text><rect x="526" y="70" width="137" height="40" style="fill:green;stroke:black;stroke-width:1" /><text x="536" y="80" font-size="8" style="fill:white">
			&lt;!DOCTYPE html&gt;
		</text><rect x="460" y="120" width="200" height="40" style="fill:white;stroke:black;stroke-width:1" /><text x="470" y="130" font-size="10" style="fill:blue">html</text><path d="M440 90 C460 90 440 140 460 140" style="fill:transparent;stroke:black" /><text x="470" y="140" font-size="8" style="fill:black">lang: es</text><rect x="680" y="120" width="200" height="40" style="fill:white;stroke:black;stroke-width:1" /><text x="690" y="130" font-size="10" style="fill:blue">head</text><path d="M660 140 C680 140 660 140 680 140" style="fill:transparent;stroke:black" /><rect x="900" y="120" width="200" height="40" style="fill:white;stroke:black;stroke-width:1" /><text x="910" y="130" font-size="10" style="fill:blue">meta</text><path d="M880 140 C900 140 880 140 900 140" style="fill:transparent;stroke:black" /><text x="910" y="140" font-size="8" style="fill:black">name: author</text><text x="910" y="150" font-size="8" style="fill:black">content: UO257829</text><rect x="900" y="170" width="200" height="40" style="fill:white;stroke:black;stroke-width:1" /><text x="910" y="180" font-size="10" style="fill:blue">title</text><path d="M880 140 C900 140 880 190 900 190" style="fill:transparent;stroke:black" /><rect x="966" y="170" width="137" height="40" style="fill:green;stroke:black;stroke-width:1" /><text x="976" y="180" font-size="8" style="fill:white">Ejercicio 2 - Tarea 1</text><rect x="900" y="220" width="200" height="40" style="fill:white;stroke:black;stroke-width:1" /><text x="910" y="230" font-size="10" style="fill:blue">meta</text><path d="M880 140 C900 140 880 240 900 240" style="fill:transparent;stroke:black" /><text x="910" y="240" font-size="8" style="fill:black">name: viewport</text><text x="910" y="250" font-size="8" style="fill:black">content: width=device-width, initial-scale=1.0</text><rect x="900" y="270" width="200" height="40" style="fill:white;stroke:black;stroke-width:1" /><text x="910" y="280" font-size="10" style="fill:blue">link</text><path d="M880 140 C900 140 880 290 900 290" style="fill:transparent;stroke:black" /><text x="910" y="290" font-size="8" style="fill:black">rel: stylesheet</text><text x="910" y="300" font-size="8" style="fill:black">type: text/css</text><text x="910" y="310" font-size="8" style="fill:black">href: rutas.css</text><rect x="680" y="370" width="200" height="40" style="fill:white;stroke:black;stroke-width:1" /><text x="690" y="380" font-size="10" style="fill:blue">body</text><path d="M660 140 C680 140 660 390 680 390" style="fill:transparent;stroke:black" /><rect x="900" y="370" width="200" height="40" style="fill:white;stroke:black;stroke-width:1" /><text x="910" y="380" font-size="10" style="fill:blue">header</text><path d="M880 390 C900 390 880 390 900 390" style="fill:transparent;stroke:black" /><rect x="1120" y="370" width="200" height="40" style="fill:white;stroke:black;stroke-width:1" /><text x="1130" y="380" font-size="10" style="fill:blue">h1</text><path d="M1100 390 C1120 390 1100 390 1120 390" style="fill:transparent;stroke:black" /><rect x="1186" y="370" width="137" height="40" style="fill:green;stroke:black;stroke-width:1" /><text x="1196" y="380" font-size="8" style="fill:white">RUTAS TURÍSTICAS</text><rect x="900" y="470" width="200" height="40" style="fill:white;stroke:black;stroke-width:1" /><text x="910" y="480" font-size="10" style="fill:blue">section</text><path d="M880 390 C900 390 880 490 900 490" style="fill:transparent;stroke:black" /><rect x="1120" y="470" width="200" height="40" style="fill:white;stroke:black;stroke-width:1" /><text x="1130" y="480" font-size="10" style="fill:blue">xsl:for-each</text><path d="M1100 490 C1120 490 1100 490 1120 490" style="fill:transparent;stroke:black" /><text x="1130" y="490" font-size="8" style="fill:black">select: ruta</text><rect x="1340" y="470" width="200" height="40" style="fill:white;stroke:black;stroke-width:1" /><text x="1350" y="480" font-size="10" style="fill:blue">h2</text><path d="M1320 490 C1340 490 1320 490 1340 490" style="fill:transparent;stroke:black" /><rect x="1560" y="470" width="200" height="40" style="fill:white;stroke:black;stroke-width:1" /><text x="1570" y="480" font-size="10" style="fill:blue">xsl:value-of</text><path d="M1540 490 C1560 490 1540 490 1560 490" style="fill:transparent;stroke:black" /><text x="1570" y="490" font-size="8" style="fill:black">select: @nombre</text><rect x="1340" y="570" width="200" height="40" style="fill:white;stroke:black;stroke-width:1" /><text x="1350" y="580" font-size="10" style="fill:blue">p</text><path d="M1320 490 C1340 490 1320 590 1340 590" style="fill:transparent;stroke:black" /><rect x="1406" y="570" width="137" height="40" style="fill:green;stroke:black;stroke-width:1" /><text x="1416" y="580" font-size="8" style="fill:white">Tipo: </text><rect x="1560" y="570" width="200" height="40" style="fill:white;stroke:black;stroke-width:1" /><text x="1570" y="580" font-size="10" style="fill:blue">xsl:value-of</text><path d="M1540 590 C1560 590 1540 590 1560 590" style="fill:transparent;stroke:black" /><text x="1570" y="590" font-size="8" style="fill:black">select: tipo</text><rect x="1340" y="670" width="200" height="40" style="fill:white;stroke:black;stroke-width:1" /><text x="1350" y="680" font-size="10" style="fill:blue">p</text><path d="M1320 490 C1340 490 1320 690 1340 690" style="fill:transparent;stroke:black" /><rect x="1406" y="670" width="137" height="40" style="fill:green;stroke:black;stroke-width:1" /><text x="1416" y="680" font-size="8" style="fill:white">Transporte: </text><rect x="1560" y="670" width="200" height="40" style="fill:white;stroke:black;stroke-width:1" /><text x="1570" y="680" font-size="10" style="fill:blue">xsl:value-of</text><path d="M1540 690 C1560 690 1540 690 1560 690" style="fill:transparent;stroke:black" /><text x="1570" y="690" font-size="8" style="fill:black">select: transporte</text><rect x="1340" y="770" width="200" height="40" style="fill:white;stroke:black;stroke-width:1" /><text x="1350" y="780" font-size="10" style="fill:blue">p</text><path d="M1320 490 C1340 490 1320 790 1340 790" style="fill:transparent;stroke:black" /><rect x="1406" y="770" width="137" height="40" style="fill:green;stroke:black;stroke-width:1" /><text x="1416" y="780" font-size="8" style="fill:white">Fecha: </text><rect x="1560" y="770" width="200" height="40" style="fill:white;stroke:black;stroke-width:1" /><text x="1570" y="780" font-size="10" style="fill:blue">xsl:value-of</text><path d="M1540 790 C1560 790 1540 790 1560 790" style="fill:transparent;stroke:black" /><text x="1570" y="790" font-size="8" style="fill:black">select: fecha</text><rect x="1340" y="870" width="200" height="40" style="fill:white;stroke:black;stroke-width:1" /><text x="1350" y="880" font-size="10" style="fill:blue">p</text><path d="M1320 490 C1340 490 1320 890 1340 890" style="fill:transparent;stroke:black" /><rect x="1406" y="870" width="137" height="40" style="fill:green;stroke:black;stroke-width:1" /><text x="1416" y="880" font-size="8" style="fill:white">Duración: </text><rect x="1560" y="870" width="200" height="40" style="fill:white;stroke:black;stroke-width:1" /><text x="1570" y="880" font-size="10" style="fill:blue">xsl:value-of</text><path d="M1540 890 C1560 890 1540 890 1560 890" style="fill:transparent;stroke:black" /><text x="1570" y="890" font-size="8" style="fill:black">select: duracion</text><rect x="1340" y="970" width="200" height="40" style="fill:white;stroke:black;stroke-width:1" /><text x="1350" y="980" font-size="10" style="fill:blue">p</text><path d="M1320 490 C1340 490 1320 990 1340 990" style="fill:transparent;stroke:black" /><rect x="1406" y="970" width="137" height="40" style="fill:green;stroke:black;stroke-width:1" /><text x="1416" y="980" font-size="8" style="fill:white">Agencia: </text><rect x="1560" y="970" width="200" height="40" style="fill:white;stroke:black;stroke-width:1" /><text x="1570" y="980" font-size="10" style="fill:blue">xsl:value-of</text><path d="M1540 990 C1560 990 1540 990 1560 990" style="fill:transparent;stroke:black" /><text x="1570" y="990" font-size="8" style="fill:black">select: agencia</text><rect x="1340" y="1070" width="200" height="40" style="fill:white;stroke:black;stroke-width:1" /><text x="1350" y="1080" font-size="10" style="fill:blue">p</text><path d="M1320 490 C1340 490 1320 1090 1340 1090" style="fill:transparent;stroke:black" /><rect x="1560" y="1070" width="200" height="40" style="fill:white;stroke:black;stroke-width:1" /><text x="1570" y="1080" font-size="10" style="fill:blue">xsl:value-of</text><path d="M1540 1090 C1560 1090 1540 1090 1560 1090" style="fill:transparent;stroke:black" /><text x="1570" y="1090" font-size="8" style="fill:black">select: descripcion</text><rect x="1340" y="1170" width="200" height="40" style="fill:white;stroke:black;stroke-width:1" /><text x="1350" y="1180" font-size="10" style="fill:blue">p</text><path d="M1320 490 C1340 490 1320 1190 1340 1190" style="fill:transparent;stroke:black" /><rect x="1406" y="1170" width="137" height="40" style="fill:green;stroke:black;stroke-width:1" /><text x="1416" y="1180" font-size="8" style="fill:white">Recomendada para: </text><rect x="1560" y="1170" width="200" height="40" style="fill:white;stroke:black;stroke-width:1" /><text x="1570" y="1180" font-size="10" style="fill:blue">xsl:value-of</text><path d="M1540 1190 C1560 1190 1540 1190 1560 1190" style="fill:transparent;stroke:black" /><text x="1570" y="1190" font-size="8" style="fill:black">select: personas</text><rect x="1340" y="1270" width="200" height="40" style="fill:white;stroke:black;stroke-width:1" /><text x="1350" y="1280" font-size="10" style="fill:blue">p</text><path d="M1320 490 C1340 490 1320 1290 1340 1290" style="fill:transparent;stroke:black" /><rect x="1406" y="1270" width="137" height="40" style="fill:green;stroke:black;stroke-width:1" /><text x="1416" y="1280" font-size="8" style="fill:white">
							Inicio de la ruta: </text><rect x="1560" y="1270" width="200" height="40" style="fill:white;stroke:black;stroke-width:1" /><text x="1570" y="1280" font-size="10" style="fill:blue">xsl:value-of</text><path d="M1540 1290 C1560 1290 1540 1290 1560 1290" style="fill:transparent;stroke:black" /><text x="1570" y="1290" font-size="8" style="fill:black">select: lugar</text><rect x="1406" y="1320" width="137" height="40" style="fill:green;stroke:black;stroke-width:1" /><text x="1416" y="1330" font-size="8" style="fill:white">, </text><rect x="1560" y="1320" width="200" height="40" style="fill:white;stroke:black;stroke-width:1" /><text x="1570" y="1330" font-size="10" style="fill:blue">xsl:value-of</text><path d="M1540 1290 C1560 1290 1540 1340 1560 1340" style="fill:transparent;stroke:black" /><text x="1570" y="1340" font-size="8" style="fill:black">select: direccion</text><rect x="1406" y="1370" width="137" height="40" style="fill:green;stroke:black;stroke-width:1" /><text x="1416" y="1380" font-size="8" style="fill:white">, 
							coordenadas: </text><rect x="1560" y="1370" width="200" height="40" style="fill:white;stroke:black;stroke-width:1" /><text x="1570" y="1380" font-size="10" style="fill:blue">xsl:value-of</text><path d="M1540 1290 C1560 1290 1540 1390 1560 1390" style="fill:transparent;stroke:black" /><text x="1570" y="1390" font-size="8" style="fill:black">select: coordenadas</text><rect x="1406" y="1420" width="137" height="40" style="fill:green;stroke:black;stroke-width:1" /><text x="1416" y="1430" font-size="8" style="fill:white">m.
						</text><rect x="1340" y="1470" width="200" height="40" style="fill:white;stroke:black;stroke-width:1" /><text x="1350" y="1480" font-size="10" style="fill:blue">h3</text><path d="M1320 490 C1340 490 1320 1490 1340 1490" style="fill:transparent;stroke:black" /><rect x="1406" y="1470" width="137" height="40" style="fill:green;stroke:black;stroke-width:1" /><text x="1416" y="1480" font-size="8" style="fill:white">Referencias</text><rect x="1340" y="1520" width="200" height="40" style="fill:white;stroke:black;stroke-width:1" /><text x="1350" y="1530" font-size="10" style="fill:blue">ul</text><path d="M1320 490 C1340 490 1320 1540 1340 1540" style="fill:transparent;stroke:black" /><rect x="1560" y="1520" width="200" height="40" style="fill:white;stroke:black;stroke-width:1" /><text x="1570" y="1530" font-size="10" style="fill:blue">xsl:for-each</text><path d="M1540 1540 C1560 1540 1540 1540 1560 1540" style="fill:transparent;stroke:black" /><text x="1570" y="1540" font-size="8" style="fill:black">select: referencia</text><rect x="1780" y="1520" width="200" height="40" style="fill:white;stroke:black;stroke-width:1" /><text x="1790" y="1530" font-size="10" style="fill:blue">li</text><path d="M1760 1540 C1780 1540 1760 1540 1780 1540" style="fill:transparent;stroke:black" /><rect x="2000" y="1520" width="200" height="40" style="fill:white;stroke:black;stroke-width:1" /><text x="2010" y="1530" font-size="10" style="fill:blue">a</text><path d="M1980 1540 C2000 1540 1980 1540 2000 1540" style="fill:transparent;stroke:black" /><rect x="2220" y="1520" width="200" height="40" style="fill:white;stroke:black;stroke-width:1" /><text x="2230" y="1530" font-size="10" style="fill:blue">xsl:attribute</text><path d="M2200 1540 C2220 1540 2200 1540 2220 1540" style="fill:transparent;stroke:black" /><text x="2230" y="1540" font-size="8" style="fill:black">name: href</text><rect x="2440" y="1520" width="200" height="40" style="fill:white;stroke:black;stroke-width:1" /><text x="2450" y="1530" font-size="10" style="fill:blue">xsl:value-of</text><path d="M2420 1540 C2440 1540 2420 1540 2440 1540" style="fill:transparent;stroke:black" /><text x="2450" y="1540" font-size="8" style="fill:black">select: @enlace</text><rect x="2220" y="1620" width="200" height="40" style="fill:white;stroke:black;stroke-width:1" /><text x="2230" y="1630" font-size="10" style="fill:blue">xsl:value-of</text><path d="M2200 1540 C2220 1540 2200 1640 2220 1640" style="fill:transparent;stroke:black" /><text x="2230" y="1640" font-size="8" style="fill:black">select: .</text><rect x="1340" y="1870" width="200" height="40" style="fill:white;stroke:black;stroke-width:1" /><text x="1350" y="1880" font-size="10" style="fill:blue">p</text><path d="M1320 490 C1340 490 1320 1890 1340 1890" style="fill:transparent;stroke:black" /><rect x="1406" y="1870" width="137" height="40" style="fill:green;stroke:black;stroke-width:1" /><text x="1416" y="1880" font-size="8" style="fill:white">Puntuación:</text><rect x="1560" y="1870" width="200" height="40" style="fill:white;stroke:black;stroke-width:1" /><text x="1570" y="1880" font-size="10" style="fill:blue">xsl:value-of</text><path d="M1540 1890 C1560 1890 1540 1890 1560 1890" style="fill:transparent;stroke:black" /><text x="1570" y="1890" font-size="8" style="fill:black">select: recomendacion</text><rect x="1340" y="1970" width="200" height="40" style="fill:white;stroke:black;stroke-width:1" /><text x="1350" y="1980" font-size="10" style="fill:blue">h3</text><path d="M1320 490 C1340 490 1320 1990 1340 1990" style="fill:transparent;stroke:black" /><rect x="1406" y="1970" width="137" height="40" style="fill:green;stroke:black;stroke-width:1" /><text x="1416" y="1980" font-size="8" style="fill:white">Hitos de la ruta</text><rect x="1340" y="2020" width="200" height="40" style="fill:white;stroke:black;stroke-width:1" /><text x="1350" y="2030" font-size="10" style="fill:blue">ul</text><path d="M1320 490 C1340 490 1320 2040 1340 2040" style="fill:transparent;stroke:black" /><rect x="1560" y="2020" width="200" height="40" style="fill:white;stroke:black;stroke-width:1" /><text x="1570" y="2030" font-size="10" style="fill:blue">xsl:for-each</text><path d="M1540 2040 C1560 2040 1540 2040 1560 2040" style="fill:transparent;stroke:black" /><text x="1570" y="2040" font-size="8" style="fill:black">select: hitos/hito</text><rect x="1780" y="2020" width="200" height="40" style="fill:white;stroke:black;stroke-width:1" /><text x="1790" y="2030" font-size="10" style="fill:blue">li</text><path d="M1760 2040 C1780 2040 1760 2040 1780 2040" style="fill:transparent;stroke:black" /><rect x="2000" y="2020" width="200" height="40" style="fill:white;stroke:black;stroke-width:1" /><text x="2010" y="2030" font-size="10" style="fill:blue">h4</text><path d="M1980 2040 C2000 2040 1980 2040 2000 2040" style="fill:transparent;stroke:black" /><rect x="2220" y="2020" width="200" height="40" style="fill:white;stroke:black;stroke-width:1" /><text x="2230" y="2030" font-size="10" style="fill:blue">xsl:value-of</text><path d="M2200 2040 C2220 2040 2200 2040 2220 2040" style="fill:transparent;stroke:black" /><text x="2230" y="2040" font-size="8" style="fill:black">select: @nombre</text><rect x="2000" y="2120" width="200" height="40" style="fill:white;stroke:black;stroke-width:1" /><text x="2010" y="2130" font-size="10" style="fill:blue">p</text><path d="M1980 2040 C2000 2040 1980 2140 2000 2140" style="fill:transparent;stroke:black" /><rect x="2220" y="2120" width="200" height="40" style="fill:white;stroke:black;stroke-width:1" /><text x="2230" y="2130" font-size="10" style="fill:blue">xsl:value-of</text><path d="M2200 2140 C2220 2140 2200 2140 2220 2140" style="fill:transparent;stroke:black" /><text x="2230" y="2140" font-size="8" style="fill:black">select: descripcion-hito</text><rect x="2000" y="2220" width="200" height="40" style="fill:white;stroke:black;stroke-width:1" /><text x="2010" y="2230" font-size="10" style="fill:blue">p</text><path d="M1980 2040 C2000 2040 1980 2240 2000 2240" style="fill:transparent;stroke:black" /><rect x="2066" y="2220" width="137" height="40" style="fill:green;stroke:black;stroke-width:1" /><text x="2076" y="2230" font-size="8" style="fill:white">
										Coordenadas: </text><rect x="2220" y="2220" width="200" height="40" style="fill:white;stroke:black;stroke-width:1" /><text x="2230" y="2230" font-size="10" style="fill:blue">xsl:value-of</text><path d="M2200 2240 C2220 2240 2200 2240 2220 2240" style="fill:transparent;stroke:black" /><text x="2230" y="2240" font-size="8" style="fill:black">select: coordenadas-hito</text><rect x="2066" y="2270" width="137" height="40" style="fill:green;stroke:black;stroke-width:1" /><text x="2076" y="2280" font-size="8" style="fill:white">m.
									</text><rect x="2000" y="2320" width="200" height="40" style="fill:white;stroke:black;stroke-width:1" /><text x="2010" y="2330" font-size="10" style="fill:blue">p</text><path d="M1980 2040 C2000 2040 1980 2340 2000 2340" style="fill:transparent;stroke:black" /><rect x="2066" y="2320" width="137" height="40" style="fill:green;stroke:black;stroke-width:1" /><text x="2076" y="2330" font-size="8" style="fill:white">Distancia desde el hito anterior: </text><rect x="2220" y="2320" width="200" height="40" style="fill:white;stroke:black;stroke-width:1" /><text x="2230" y="2330" font-size="10" style="fill:blue">xsl:value-of</text><path d="M2200 2340 C2220 2340 2200 2340 2220 2340" style="fill:transparent;stroke:black" /><text x="2230" y="2340" font-size="8" style="fill:black">select: distancia</text><rect x="2220" y="2370" width="200" height="40" style="fill:white;stroke:black;stroke-width:1" /><text x="2230" y="2380" font-size="10" style="fill:blue">xsl:value-of</text><path d="M2200 2340 C2220 2340 2200 2390 2220 2390" style="fill:transparent;stroke:black" /><text x="2230" y="2390" font-size="8" style="fill:black">select: distancia/@unidades</text><rect x="2000" y="2470" width="200" height="40" style="fill:white;stroke:black;stroke-width:1" /><text x="2010" y="2480" font-size="10" style="fill:blue">xsl:for-each</text><path d="M1980 2040 C2000 2040 1980 2490 2000 2490" style="fill:transparent;stroke:black" /><text x="2010" y="2490" font-size="8" style="fill:black">select: galeria/fotografia</text><rect x="2220" y="2470" width="200" height="40" style="fill:white;stroke:black;stroke-width:1" /><text x="2230" y="2480" font-size="10" style="fill:blue">xsl:element</text><path d="M2200 2490 C2220 2490 2200 2490 2220 2490" style="fill:transparent;stroke:black" /><text x="2230" y="2490" font-size="8" style="fill:black">name: img</text><rect x="2440" y="2470" width="200" height="40" style="fill:white;stroke:black;stroke-width:1" /><text x="2450" y="2480" font-size="10" style="fill:blue">xsl:attribute</text><path d="M2420 2490 C2440 2490 2420 2490 2440 2490" style="fill:transparent;stroke:black" /><text x="2450" y="2490" font-size="8" style="fill:black">name: src</text><rect x="2660" y="2470" width="200" height="40" style="fill:white;stroke:black;stroke-width:1" /><text x="2670" y="2480" font-size="10" style="fill:blue">xsl:value-of</text><path d="M2640 2490 C2660 2490 2640 2490 2660 2490" style="fill:transparent;stroke:black" /><text x="2670" y="2490" font-size="8" style="fill:black">select: @archivo</text><rect x="2440" y="2570" width="200" height="40" style="fill:white;stroke:black;stroke-width:1" /><text x="2450" y="2580" font-size="10" style="fill:blue">xsl:attribute</text><path d="M2420 2490 C2440 2490 2420 2590 2440 2590" style="fill:transparent;stroke:black" /><text x="2450" y="2590" font-size="8" style="fill:black">name: class</text><rect x="2506" y="2570" width="137" height="40" style="fill:green;stroke:black;stroke-width:1" /><text x="2516" y="2580" font-size="8" style="fill:white">
											img_css
											</text><rect x="2440" y="2620" width="200" height="40" style="fill:white;stroke:black;stroke-width:1" /><text x="2450" y="2630" font-size="10" style="fill:blue">xsl:attribute</text><path d="M2420 2490 C2440 2490 2420 2640 2440 2640" style="fill:transparent;stroke:black" /><text x="2450" y="2640" font-size="8" style="fill:black">name: alt</text><rect x="2660" y="2620" width="200" height="40" style="fill:white;stroke:black;stroke-width:1" /><text x="2670" y="2630" font-size="10" style="fill:blue">xsl:value-of</text><path d="M2640 2640 C2660 2640 2640 2640 2660 2640" style="fill:transparent;stroke:black" /><text x="2670" y="2640" font-size="8" style="fill:black">select: .</text><rect x="900" y="3070" width="200" height="40" style="fill:white;stroke:black;stroke-width:1" /><text x="910" y="3080" font-size="10" style="fill:blue">footer</text><path d="M880 390 C900 390 880 3090 900 3090" style="fill:transparent;stroke:black" /><rect x="1120" y="3070" width="200" height="40" style="fill:white;stroke:black;stroke-width:1" /><text x="1130" y="3080" font-size="10" style="fill:blue">a</text><path d="M1100 3090 C1120 3090 1100 3090 1120 3090" style="fill:transparent;stroke:black" /><text x="1130" y="3090" font-size="8" style="fill:black">href: https://validator.w3.org/check?uri=referer</text><rect x="1340" y="3070" width="200" height="40" style="fill:white;stroke:black;stroke-width:1" /><text x="1350" y="3080" font-size="10" style="fill:blue">img</text><path d="M1320 3090 C1340 3090 1320 3090 1340 3090" style="fill:transparent;stroke:black" /><text x="1350" y="3090" font-size="8" style="fill:black">src: https://www.w3.org/html/logo/badge/html5-badge-h-solo.png</text><text x="1350" y="3100" font-size="8" style="fill:black">alt: HTML5 Válido</text><text x="1350" y="3110" font-size="8" style="fill:black">height: 64</text><text x="1350" y="3120" font-size="8" style="fill:black">width: 63</text><rect x="1120" y="3170" width="200" height="40" style="fill:white;stroke:black;stroke-width:1" /><text x="1130" y="3180" font-size="10" style="fill:blue">a</text><path d="M1100 3090 C1120 3090 1100 3190 1120 3190" style="fill:transparent;stroke:black" /><text x="1130" y="3190" font-size="8" style="fill:black">href:  http://jigsaw.w3.org/css-validator/check/referer </text><rect x="1340" y="3170" width="200" height="40" style="fill:white;stroke:black;stroke-width:1" /><text x="1350" y="3180" font-size="10" style="fill:blue">img</text><path d="M1320 3190 C1340 3190 1320 3190 1340 3190" style="fill:transparent;stroke:black" /><text x="1350" y="3190" font-size="8" style="fill:black">src:  http://jigsaw.w3.org/css-validator/images/vcss</text><text x="1350" y="3200" font-size="8" style="fill:black">alt: Valid CSS!</text><text x="1350" y="3210" font-size="8" style="fill:black">height: 31</text><text x="1350" y="3220" font-size="8" style="fill:black">width: 88</text></svg>