<?xml version="1.0" encoding="utf-8"?><svg width="auto" height="2670" style="overflow:visible " version="1.1" xmlns="http://www.w3.org/2000/svg"><rect x="20" y="20" width="200" height="40" style="fill:white;stroke:black;stroke-width:1" /><text x="30" y="30" font-size="10" style="fill:blue">xs:schema</text><text x="30" y="40" font-size="8" style="fill:black">xmlns:xs: http://www.w3.org/2001/XMLSchema</text><text x="30" y="50" font-size="8" style="fill:black">elementFormDefault: qualified</text><text x="30" y="60" font-size="8" style="fill:black">targetNamespace: http://www.uniovi.es/alumnos</text><text x="30" y="70" font-size="8" style="fill:black">xmlns: http://www.uniovi.es/alumnos</text><rect x="240" y="20" width="200" height="40" style="fill:white;stroke:black;stroke-width:1" /><text x="250" y="30" font-size="10" style="fill:blue">xs:element</text><path d="M220 40 C240 40 220 40 240 40" style="fill:transparent;stroke:black" /><text x="250" y="40" font-size="8" style="fill:black">name: rutas</text><rect x="460" y="20" width="200" height="40" style="fill:white;stroke:black;stroke-width:1" /><text x="470" y="30" font-size="10" style="fill:blue">xs:complexType</text><path d="M440 40 C460 40 440 40 460 40" style="fill:transparent;stroke:black" /><rect x="680" y="20" width="200" height="40" style="fill:white;stroke:black;stroke-width:1" /><text x="690" y="30" font-size="10" style="fill:blue">xs:sequence</text><path d="M660 40 C680 40 660 40 680 40" style="fill:transparent;stroke:black" /><rect x="900" y="20" width="200" height="40" style="fill:white;stroke:black;stroke-width:1" /><text x="910" y="30" font-size="10" style="fill:blue">xs:element</text><path d="M880 40 C900 40 880 40 900 40" style="fill:transparent;stroke:black" /><text x="910" y="40" font-size="8" style="fill:black">minOccurs: 5</text><text x="910" y="50" font-size="8" style="fill:black">maxOccurs: unbounded</text><text x="910" y="60" font-size="8" style="fill:black">name: ruta</text><rect x="1120" y="20" width="200" height="40" style="fill:white;stroke:black;stroke-width:1" /><text x="1130" y="30" font-size="10" style="fill:blue">xs:complexType</text><path d="M1100 40 C1120 40 1100 40 1120 40" style="fill:transparent;stroke:black" /><rect x="1340" y="20" width="200" height="40" style="fill:white;stroke:black;stroke-width:1" /><text x="1350" y="30" font-size="10" style="fill:blue">xs:sequence</text><path d="M1320 40 C1340 40 1320 40 1340 40" style="fill:transparent;stroke:black" /><rect x="1560" y="20" width="200" height="40" style="fill:white;stroke:black;stroke-width:1" /><text x="1570" y="30" font-size="10" style="fill:blue">xs:element</text><path d="M1540 40 C1560 40 1540 40 1560 40" style="fill:transparent;stroke:black" /><text x="1570" y="40" font-size="8" style="fill:black">name: tipo</text><text x="1570" y="50" font-size="8" style="fill:black">type: xs:string</text><rect x="1560" y="70" width="200" height="40" style="fill:white;stroke:black;stroke-width:1" /><text x="1570" y="80" font-size="10" style="fill:blue">xs:element</text><path d="M1540 40 C1560 40 1540 90 1560 90" style="fill:transparent;stroke:black" /><text x="1570" y="90" font-size="8" style="fill:black">name: transporte</text><text x="1570" y="100" font-size="8" style="fill:black">type: xs:string</text><rect x="1560" y="120" width="200" height="40" style="fill:white;stroke:black;stroke-width:1" /><text x="1570" y="130" font-size="10" style="fill:blue">xs:element</text><path d="M1540 40 C1560 40 1540 140 1560 140" style="fill:transparent;stroke:black" /><text x="1570" y="140" font-size="8" style="fill:black">minOccurs: 0</text><text x="1570" y="150" font-size="8" style="fill:black">maxOccurs: 1</text><text x="1570" y="160" font-size="8" style="fill:black">name: fecha</text><text x="1570" y="170" font-size="8" style="fill:black">type: xs:date</text><rect x="1560" y="170" width="200" height="40" style="fill:white;stroke:black;stroke-width:1" /><text x="1570" y="180" font-size="10" style="fill:blue">xs:element</text><path d="M1540 40 C1560 40 1540 190 1560 190" style="fill:transparent;stroke:black" /><text x="1570" y="190" font-size="8" style="fill:black">minOccurs: 0</text><text x="1570" y="200" font-size="8" style="fill:black">maxOccurs: 1</text><text x="1570" y="210" font-size="8" style="fill:black">name: hora</text><text x="1570" y="220" font-size="8" style="fill:black">type: xs:time</text><rect x="1560" y="220" width="200" height="40" style="fill:white;stroke:black;stroke-width:1" /><text x="1570" y="230" font-size="10" style="fill:blue">xs:element</text><path d="M1540 40 C1560 40 1540 240 1560 240" style="fill:transparent;stroke:black" /><text x="1570" y="240" font-size="8" style="fill:black">name: duracion</text><text x="1570" y="250" font-size="8" style="fill:black">type: xs:duration</text><rect x="1560" y="270" width="200" height="40" style="fill:white;stroke:black;stroke-width:1" /><text x="1570" y="280" font-size="10" style="fill:blue">xs:element</text><path d="M1540 40 C1560 40 1540 290 1560 290" style="fill:transparent;stroke:black" /><text x="1570" y="290" font-size="8" style="fill:black">name: agencia</text><text x="1570" y="300" font-size="8" style="fill:black">type: xs:string</text><rect x="1560" y="320" width="200" height="40" style="fill:white;stroke:black;stroke-width:1" /><text x="1570" y="330" font-size="10" style="fill:blue">xs:element</text><path d="M1540 40 C1560 40 1540 340 1560 340" style="fill:transparent;stroke:black" /><text x="1570" y="340" font-size="8" style="fill:black">name: descripcion</text><text x="1570" y="350" font-size="8" style="fill:black">type: xs:string</text><rect x="1560" y="370" width="200" height="40" style="fill:white;stroke:black;stroke-width:1" /><text x="1570" y="380" font-size="10" style="fill:blue">xs:element</text><path d="M1540 40 C1560 40 1540 390 1560 390" style="fill:transparent;stroke:black" /><text x="1570" y="390" font-size="8" style="fill:black">name: personas</text><text x="1570" y="400" font-size="8" style="fill:black">type: xs:string</text><rect x="1560" y="420" width="200" height="40" style="fill:white;stroke:black;stroke-width:1" /><text x="1570" y="430" font-size="10" style="fill:blue">xs:element</text><path d="M1540 40 C1560 40 1540 440 1560 440" style="fill:transparent;stroke:black" /><text x="1570" y="440" font-size="8" style="fill:black">name: lugar</text><text x="1570" y="450" font-size="8" style="fill:black">type: xs:string</text><rect x="1560" y="470" width="200" height="40" style="fill:white;stroke:black;stroke-width:1" /><text x="1570" y="480" font-size="10" style="fill:blue">xs:element</text><path d="M1540 40 C1560 40 1540 490 1560 490" style="fill:transparent;stroke:black" /><text x="1570" y="490" font-size="8" style="fill:black">name: direccion</text><text x="1570" y="500" font-size="8" style="fill:black">type: xs:string</text><rect x="1560" y="520" width="200" height="40" style="fill:white;stroke:black;stroke-width:1" /><text x="1570" y="530" font-size="10" style="fill:blue">xs:element</text><path d="M1540 40 C1560 40 1540 540 1560 540" style="fill:transparent;stroke:black" /><text x="1570" y="540" font-size="8" style="fill:black">name: coordenadas</text><text x="1570" y="550" font-size="8" style="fill:black">type: xs:string</text><rect x="1560" y="570" width="200" height="40" style="fill:white;stroke:black;stroke-width:1" /><text x="1570" y="580" font-size="10" style="fill:blue">xs:element</text><path d="M1540 40 C1560 40 1540 590 1560 590" style="fill:transparent;stroke:black" /><text x="1570" y="590" font-size="8" style="fill:black">minOccurs: 3</text><text x="1570" y="600" font-size="8" style="fill:black">maxOccurs: unbounded</text><text x="1570" y="610" font-size="8" style="fill:black">name: referencia</text><rect x="1780" y="570" width="200" height="40" style="fill:white;stroke:black;stroke-width:1" /><text x="1790" y="580" font-size="10" style="fill:blue">xs:complexType</text><path d="M1760 590 C1780 590 1760 590 1780 590" style="fill:transparent;stroke:black" /><rect x="2000" y="570" width="200" height="40" style="fill:white;stroke:black;stroke-width:1" /><text x="2010" y="580" font-size="10" style="fill:blue">xs:simpleContent</text><path d="M1980 590 C2000 590 1980 590 2000 590" style="fill:transparent;stroke:black" /><rect x="2220" y="570" width="200" height="40" style="fill:white;stroke:black;stroke-width:1" /><text x="2230" y="580" font-size="10" style="fill:blue">xs:extension</text><path d="M2200 590 C2220 590 2200 590 2220 590" style="fill:transparent;stroke:black" /><text x="2230" y="590" font-size="8" style="fill:black">base: xs:string</text><rect x="2440" y="570" width="200" height="40" style="fill:white;stroke:black;stroke-width:1" /><text x="2450" y="580" font-size="10" style="fill:blue">xs:attribute</text><path d="M2420 590 C2440 590 2420 590 2440 590" style="fill:transparent;stroke:black" /><text x="2450" y="590" font-size="8" style="fill:black">name: ref-number</text><text x="2450" y="600" font-size="8" style="fill:black">type: xs:unsignedByte</text><text x="2450" y="610" font-size="8" style="fill:black">use: required</text><rect x="2440" y="620" width="200" height="40" style="fill:white;stroke:black;stroke-width:1" /><text x="2450" y="630" font-size="10" style="fill:blue">xs:attribute</text><path d="M2420 590 C2440 590 2420 640 2440 640" style="fill:transparent;stroke:black" /><text x="2450" y="640" font-size="8" style="fill:black">name: enlace</text><text x="2450" y="650" font-size="8" style="fill:black">type: xs:string</text><text x="2450" y="660" font-size="8" style="fill:black">use: required</text><rect x="1560" y="870" width="200" height="40" style="fill:white;stroke:black;stroke-width:1" /><text x="1570" y="880" font-size="10" style="fill:blue">xs:element</text><path d="M1540 40 C1560 40 1540 890 1560 890" style="fill:transparent;stroke:black" /><text x="1570" y="890" font-size="8" style="fill:black">name: recomendacion</text><rect x="1780" y="870" width="200" height="40" style="fill:white;stroke:black;stroke-width:1" /><text x="1790" y="880" font-size="10" style="fill:blue">xs:simpleType</text><path d="M1760 890 C1780 890 1760 890 1780 890" style="fill:transparent;stroke:black" /><rect x="2000" y="870" width="200" height="40" style="fill:white;stroke:black;stroke-width:1" /><text x="2010" y="880" font-size="10" style="fill:blue">xs:restriction</text><path d="M1980 890 C2000 890 1980 890 2000 890" style="fill:transparent;stroke:black" /><text x="2010" y="890" font-size="8" style="fill:black">base: xs:integer</text><rect x="2220" y="870" width="200" height="40" style="fill:white;stroke:black;stroke-width:1" /><text x="2230" y="880" font-size="10" style="fill:blue">xs:minExclusive</text><path d="M2200 890 C2220 890 2200 890 2220 890" style="fill:transparent;stroke:black" /><text x="2230" y="890" font-size="8" style="fill:black">value: 0</text><rect x="2220" y="920" width="200" height="40" style="fill:white;stroke:black;stroke-width:1" /><text x="2230" y="930" font-size="10" style="fill:blue">xs:maxExclusive</text><path d="M2200 890 C2220 890 2200 940 2220 940" style="fill:transparent;stroke:black" /><text x="2230" y="940" font-size="8" style="fill:black">value: 10</text><rect x="1560" y="1120" width="200" height="40" style="fill:white;stroke:black;stroke-width:1" /><text x="1570" y="1130" font-size="10" style="fill:blue">xs:element</text><path d="M1540 40 C1560 40 1540 1140 1560 1140" style="fill:transparent;stroke:black" /><text x="1570" y="1140" font-size="8" style="fill:black">name: hitos</text><rect x="1780" y="1120" width="200" height="40" style="fill:white;stroke:black;stroke-width:1" /><text x="1790" y="1130" font-size="10" style="fill:blue">xs:complexType</text><path d="M1760 1140 C1780 1140 1760 1140 1780 1140" style="fill:transparent;stroke:black" /><rect x="2000" y="1120" width="200" height="40" style="fill:white;stroke:black;stroke-width:1" /><text x="2010" y="1130" font-size="10" style="fill:blue">xs:sequence</text><path d="M1980 1140 C2000 1140 1980 1140 2000 1140" style="fill:transparent;stroke:black" /><rect x="2220" y="1120" width="200" height="40" style="fill:white;stroke:black;stroke-width:1" /><text x="2230" y="1130" font-size="10" style="fill:blue">xs:element</text><path d="M2200 1140 C2220 1140 2200 1140 2220 1140" style="fill:transparent;stroke:black" /><text x="2230" y="1140" font-size="8" style="fill:black">minOccurs: 3</text><text x="2230" y="1150" font-size="8" style="fill:black">maxOccurs: unbounded</text><text x="2230" y="1160" font-size="8" style="fill:black">name: hito</text><rect x="2440" y="1120" width="200" height="40" style="fill:white;stroke:black;stroke-width:1" /><text x="2450" y="1130" font-size="10" style="fill:blue">xs:complexType</text><path d="M2420 1140 C2440 1140 2420 1140 2440 1140" style="fill:transparent;stroke:black" /><rect x="2660" y="1120" width="200" height="40" style="fill:white;stroke:black;stroke-width:1" /><text x="2670" y="1130" font-size="10" style="fill:blue">xs:sequence</text><path d="M2640 1140 C2660 1140 2640 1140 2660 1140" style="fill:transparent;stroke:black" /><rect x="2880" y="1120" width="200" height="40" style="fill:white;stroke:black;stroke-width:1" /><text x="2890" y="1130" font-size="10" style="fill:blue">xs:element</text><path d="M2860 1140 C2880 1140 2860 1140 2880 1140" style="fill:transparent;stroke:black" /><text x="2890" y="1140" font-size="8" style="fill:black">name: descripcion-hito</text><text x="2890" y="1150" font-size="8" style="fill:black">type: xs:string</text><rect x="2880" y="1170" width="200" height="40" style="fill:white;stroke:black;stroke-width:1" /><text x="2890" y="1180" font-size="10" style="fill:blue">xs:element</text><path d="M2860 1140 C2880 1140 2860 1190 2880 1190" style="fill:transparent;stroke:black" /><text x="2890" y="1190" font-size="8" style="fill:black">name: coordenadas-hito</text><text x="2890" y="1200" font-size="8" style="fill:black">type: xs:string</text><rect x="2880" y="1220" width="200" height="40" style="fill:white;stroke:black;stroke-width:1" /><text x="2890" y="1230" font-size="10" style="fill:blue">xs:element</text><path d="M2860 1140 C2880 1140 2860 1240 2880 1240" style="fill:transparent;stroke:black" /><text x="2890" y="1240" font-size="8" style="fill:black">name: distancia</text><text x="2890" y="1250" font-size="8" style="fill:black">type: xs:double</text><rect x="3100" y="1220" width="200" height="40" style="fill:white;stroke:black;stroke-width:1" /><text x="3110" y="1230" font-size="10" style="fill:blue">xs:complexType</text><path d="M3080 1240 C3100 1240 3080 1240 3100 1240" style="fill:transparent;stroke:black" /><rect x="3320" y="1220" width="200" height="40" style="fill:white;stroke:black;stroke-width:1" /><text x="3330" y="1230" font-size="10" style="fill:blue">xs:simpleContent</text><path d="M3300 1240 C3320 1240 3300 1240 3320 1240" style="fill:transparent;stroke:black" /><rect x="3540" y="1220" width="200" height="40" style="fill:white;stroke:black;stroke-width:1" /><text x="3550" y="1230" font-size="10" style="fill:blue">xs:extension</text><path d="M3520 1240 C3540 1240 3520 1240 3540 1240" style="fill:transparent;stroke:black" /><text x="3550" y="1240" font-size="8" style="fill:black">base: xs:decimal</text><rect x="3760" y="1220" width="200" height="40" style="fill:white;stroke:black;stroke-width:1" /><text x="3770" y="1230" font-size="10" style="fill:blue">xs:attribute</text><path d="M3740 1240 C3760 1240 3740 1240 3760 1240" style="fill:transparent;stroke:black" /><text x="3770" y="1240" font-size="8" style="fill:black">name: unidades</text><text x="3770" y="1250" font-size="8" style="fill:black">type: xs:string</text><text x="3770" y="1260" font-size="8" style="fill:black">use: required</text><rect x="2880" y="1470" width="200" height="40" style="fill:white;stroke:black;stroke-width:1" /><text x="2890" y="1480" font-size="10" style="fill:blue">xs:element</text><path d="M2860 1140 C2880 1140 2860 1490 2880 1490" style="fill:transparent;stroke:black" /><text x="2890" y="1490" font-size="8" style="fill:black">name: galeria</text><rect x="3100" y="1470" width="200" height="40" style="fill:white;stroke:black;stroke-width:1" /><text x="3110" y="1480" font-size="10" style="fill:blue">xs:complexType</text><path d="M3080 1490 C3100 1490 3080 1490 3100 1490" style="fill:transparent;stroke:black" /><rect x="3320" y="1470" width="200" height="40" style="fill:white;stroke:black;stroke-width:1" /><text x="3330" y="1480" font-size="10" style="fill:blue">xs:sequence</text><path d="M3300 1490 C3320 1490 3300 1490 3320 1490" style="fill:transparent;stroke:black" /><rect x="3540" y="1470" width="200" height="40" style="fill:white;stroke:black;stroke-width:1" /><text x="3550" y="1480" font-size="10" style="fill:blue">xs:element</text><path d="M3520 1490 C3540 1490 3520 1490 3540 1490" style="fill:transparent;stroke:black" /><text x="3550" y="1490" font-size="8" style="fill:black">minOccurs: 1</text><text x="3550" y="1500" font-size="8" style="fill:black">maxOccurs: 5</text><text x="3550" y="1510" font-size="8" style="fill:black">name: fotografia</text><rect x="3760" y="1470" width="200" height="40" style="fill:white;stroke:black;stroke-width:1" /><text x="3770" y="1480" font-size="10" style="fill:blue">xs:complexType</text><path d="M3740 1490 C3760 1490 3740 1490 3760 1490" style="fill:transparent;stroke:black" /><rect x="3980" y="1470" width="200" height="40" style="fill:white;stroke:black;stroke-width:1" /><text x="3990" y="1480" font-size="10" style="fill:blue">xs:simpleContent</text><path d="M3960 1490 C3980 1490 3960 1490 3980 1490" style="fill:transparent;stroke:black" /><rect x="4200" y="1470" width="200" height="40" style="fill:white;stroke:black;stroke-width:1" /><text x="4210" y="1480" font-size="10" style="fill:blue">xs:extension</text><path d="M4180 1490 C4200 1490 4180 1490 4200 1490" style="fill:transparent;stroke:black" /><text x="4210" y="1490" font-size="8" style="fill:black">base: xs:string</text><rect x="4420" y="1470" width="200" height="40" style="fill:white;stroke:black;stroke-width:1" /><text x="4430" y="1480" font-size="10" style="fill:blue">xs:attribute</text><path d="M4400 1490 C4420 1490 4400 1490 4420 1490" style="fill:transparent;stroke:black" /><text x="4430" y="1490" font-size="8" style="fill:black">name: archivo</text><text x="4430" y="1500" font-size="8" style="fill:black">type: xs:string</text><text x="4430" y="1510" font-size="8" style="fill:black">use: required</text><rect x="3540" y="1720" width="200" height="40" style="fill:white;stroke:black;stroke-width:1" /><text x="3550" y="1730" font-size="10" style="fill:blue">xs:element</text><path d="M3520 1490 C3540 1490 3520 1740 3540 1740" style="fill:transparent;stroke:black" /><text x="3550" y="1740" font-size="8" style="fill:black">minOccurs: 0</text><text x="3550" y="1750" font-size="8" style="fill:black">maxOccurs: 3</text><text x="3550" y="1760" font-size="8" style="fill:black">name: video</text><rect x="2660" y="1970" width="200" height="40" style="fill:white;stroke:black;stroke-width:1" /><text x="2670" y="1980" font-size="10" style="fill:blue">xs:attribute</text><path d="M2640 1140 C2660 1140 2640 1990 2660 1990" style="fill:transparent;stroke:black" /><text x="2670" y="1990" font-size="8" style="fill:black">name: nombre</text><text x="2670" y="2000" font-size="8" style="fill:black">type: xs:string</text><text x="2670" y="2010" font-size="8" style="fill:black">use: required</text><rect x="1340" y="2320" width="200" height="40" style="fill:white;stroke:black;stroke-width:1" /><text x="1350" y="2330" font-size="10" style="fill:blue">xs:attribute</text><path d="M1320 40 C1340 40 1320 2340 1340 2340" style="fill:transparent;stroke:black" /><text x="1350" y="2340" font-size="8" style="fill:black">name: nombre</text><text x="1350" y="2350" font-size="8" style="fill:black">type: xs:string</text><text x="1350" y="2360" font-size="8" style="fill:black">use: required</text></svg>